<svg height="512pt" viewBox="0 0 512 512.002" width="512pt" xmlns="http://www.w3.org/2000/svg"><path d="m292.972656 249.066406s0 0 0-.003906l-12.480468-21.613281c-2.46875-4.277344-7.070313-6.9375-12.011719-6.9375h-24.960938c-4.9375 0-9.542969 2.660156-12.011719 6.9375l-12.480468 21.613281c-2.46875 4.277344-2.46875 9.597656 0 13.875l12.480468 21.613281c2.46875 4.277344 7.074219 6.9375 12.011719 6.9375h24.960938c4.9375 0 9.542969-2.660156 12.011719-6.9375l12.480468-21.617187c2.46875-4.277344 2.46875-9.589844 0-13.867188zm-25.144531 27.417969h-23.652344l-11.828125-20.484375 11.828125-20.484375h23.652344l11.828125 20.484375zm0 0"/><path d="m342.222656 169.78125c-.234375-.230469-.480468-.4375-.734375-.632812-22.019531-21.679688-52.214843-35.082032-85.488281-35.082032-33.269531 0-63.46875 13.402344-85.488281 35.082032-.253907.195312-.5.402343-.730469.632812s-.4375.476562-.628906.730469c-21.683594 22.019531-35.082032 52.21875-35.082032 85.488281 0 33.273438 13.398438 63.46875 35.082032 85.492188.191406.25.398437.496093.628906.726562s.476562.4375.730469.632812c22.019531 21.679688 52.21875 35.082032 85.488281 35.082032 33.273438 0 63.46875-13.402344 85.488281-35.078125.253907-.195313.5-.402344.734375-.636719.230469-.230469.4375-.476562.632813-.730469 21.679687-22.023437 35.078125-52.21875 35.078125-85.488281s-13.398438-63.464844-35.078125-85.484375c-.195313-.253906-.402344-.503906-.632813-.734375zm-5.527344 156.304688-27.148437-27.148438c7.980469-9.929688 13.261719-22.113281 14.71875-35.4375h38.398437c-1.660156 23.851562-11.171874 45.570312-25.96875 62.585938zm-187.359374-62.585938h38.402343c1.453125 13.324219 6.734375 25.507812 14.714844 35.4375l-27.148437 27.148438c-14.796876-17.011719-24.308594-38.734376-25.96875-62.585938zm25.96875-77.585938 27.148437 27.148438c-7.980469 9.929688-13.261719 22.113281-14.714844 35.4375h-38.398437c1.65625-23.851562 11.167968-45.574219 25.964844-62.585938zm80.695312 123.765626c-29.597656 0-53.679688-24.082032-53.679688-53.679688 0-29.601562 24.082032-53.683594 53.679688-53.683594 29.601562 0 53.683594 24.082032 53.683594 53.683594 0 29.597656-24.082032 53.679688-53.683594 53.679688zm42.941406-107.226563c-9.933594-7.980469-22.117187-13.261719-35.441406-14.71875v-38.398437c23.851562 1.660156 45.574219 11.171874 62.585938 25.96875zm-50.441406-14.71875c-13.324219 1.457031-25.507812 6.738281-35.4375 14.71875l-27.148438-27.148437c17.011719-14.796876 38.734376-24.308594 62.585938-25.96875zm-35.4375 121.8125c9.933594 7.980469 22.113281 13.261719 35.4375 14.714844v38.402343c-23.851562-1.660156-45.570312-11.171874-62.585938-25.96875zm50.4375 14.71875c13.324219-1.457031 25.507812-6.738281 35.441406-14.71875l27.144532 27.148437c-17.011719 14.796876-38.734376 24.308594-62.585938 25.96875zm60.765625-75.765625c-1.453125-13.324219-6.734375-25.507812-14.714844-35.4375l27.144531-27.148438c14.796876 17.015626 24.308594 38.734376 25.96875 62.585938zm0 0"/><path d="m257.46875 248.648438c-4.4375-.917969-8.972656 2.449218-8.972656 7.351562 0 4.160156 3.394531 7.5 7.503906 7.5 4.136719 0 7.5-3.363281 7.5-7.5 0-3.59375-2.5625-6.691406-6.03125-7.351562zm0 0"/><path d="m490.90625 234.335938h-39.648438c-.367187-7.503907-6.570312-13.5-14.167968-13.5h-8.121094c-7.832031 0-14.203125 6.371093-14.203125 14.203124v13.460938h-8.695313c-1.769531-35.789062-16.113281-68.320312-38.699218-93.261719l6.199218-6.199219 9.515626 9.519532c2.769531 2.769531 6.40625 4.152344 10.042968 4.152344 3.640625 0 7.273438-1.382813 10.046875-4.152344l5.742188-5.742188c5.367187-5.371094 5.515625-13.996094.46875-19.566406l28.035156-28.035156c8.222656-8.222656 8.222656-21.609375 0-29.835938l-.800781-.800781c-8.226563-8.222656-21.609375-8.222656-29.835938 0l-28.035156 28.035156c-5.570312-5.046875-14.191406-4.898437-19.5625.472657l-5.742188 5.742187c-5.539062 5.535156-5.539062 14.546875 0 20.085937l9.515626 9.519532-6.199219 6.199218c-24.941407-22.585937-57.472657-36.933593-93.257813-38.703124v-8.695313h13.460938c7.832031 0 14.203125-6.371094 14.203125-14.203125v-8.121094c0-7.59375-6-13.796875-13.503907-14.167968v-39.644532c0-11.632812-9.464843-21.097656-21.097656-21.097656h-1.132812c-11.632813 0-21.09375 9.464844-21.09375 21.097656v39.644532c-7.507813.371093-13.503906 6.574218-13.503906 14.167968v8.121094c0 7.832031 6.371093 14.203125 14.203124 14.203125h13.460938v8.695313c-35.789062 1.769531-68.320312 16.117187-93.257812 38.703124l-6.199219-6.199218 9.515625-9.519532c2.683594-2.683593 4.160156-6.25 4.160156-10.042968 0-3.792969-1.476562-7.363282-4.160156-10.042969l-5.742188-5.742187c-5.371094-5.371094-13.996094-5.519532-19.5625-.472657l-28.035156-28.035156c-8.226562-8.222656-21.609375-8.226563-29.832031 0l-.804688.800781c-8.226562 8.226563-8.226562 21.609375 0 29.835938l28.03125 28.035156c-5.042969 5.570312-4.898437 14.195312.472657 19.566406l5.742187 5.742188c2.769531 2.769531 6.40625 4.152344 10.042969 4.152344 3.636718 0 7.273437-1.386719 10.042968-4.152344l9.519532-9.519532 6.199218 6.199219c-22.585937 24.941407-36.933593 57.472657-38.699218 93.261719h-8.695313v-13.460938c0-7.832031-6.371093-14.203124-14.207031-14.203124h-8.117188c-7.597656 0-13.800781 5.996093-14.167968 13.5h-39.648438c-11.632812 0-21.097656 9.464843-21.097656 21.097656v1.132812c0 11.632813 9.464844 21.097656 21.097656 21.097656h39.648438c.367187 7.503907 6.570312 13.5 14.167968 13.5h8.117188c7.835938 0 14.207031-6.371093 14.207031-14.203124v-13.460938h8.695313c1.765625 35.789062 16.113281 68.320312 38.699218 93.261719l-6.199218 6.199219-9.519532-9.519532c-5.539062-5.535156-14.550781-5.535156-20.085937 0l-5.742187 5.742188c-5.371094 5.371094-5.515626 14-.472657 19.566406l-28.03125 28.035156c-8.226562 8.226563-8.226562 21.609375.003907 29.839844l.796874.796875c8.222657 8.222656 21.609376 8.226563 29.835938 0l28.03125-28.035156c2.699219 2.445312 6.105469 3.683593 9.523438 3.683593 3.636718 0 7.273437-1.386718 10.042968-4.152343l5.742188-5.742188c2.683594-2.683593 4.160156-6.25 4.160156-10.046875 0-3.792968-1.480469-7.359375-4.160156-10.039062l-9.519532-9.519532 6.199219-6.199218c24.941407 22.585937 57.472657 36.933594 93.261719 38.699218v8.695313h-13.460938c-7.832031 0-14.203124 6.371094-14.203124 14.203125v8.121094c0 7.597656 5.996093 13.800781 13.5 14.167968v39.648438c0 11.632812 9.464843 21.097656 21.097656 21.097656h1.132812c11.1875 0 20.433594-8.761718 21.046875-19.941406.230469-4.136719-2.941406-7.675781-7.078125-7.902344-4.125-.242187-7.671875 2.941406-7.898437 7.078125-.175781 3.179688-2.898438 5.765625-6.070313 5.765625h-1.132812c-3.359375 0-6.09375-2.734375-6.09375-6.097656v-39.609375h13.324218v5.351563c0 4.144531 3.355469 7.5 7.5 7.5 4.140626 0 7.5-3.355469 7.5-7.5v-5.386719c7.503907-.371094 13.5-6.574219 13.5-14.167969v-8.121094c0-7.832031-6.371093-14.203125-14.203124-14.203125h-13.460938v-8.695312c35.789062-1.769531 68.320312-16.117188 93.261719-38.703125l6.199219 6.199218-9.519532 9.519532c-5.535156 5.539062-5.535156 14.546875 0 20.085937 5.644532 5.644531 8.707032 9.894531 15.785156 9.894531 3.417969 0 6.828126-1.238281 9.523438-3.679687l28.035156 28.03125c8.222656 8.226563 21.609375 8.226563 29.835938 0l.796875-.800781c8.226562-8.222656 8.226562-21.609375.003906-29.835938l-28.035156-28.03125c5.046875-5.570312 4.898437-14.195312-.472657-19.566406l-5.742187-5.742188c-5.539063-5.539062-14.546875-5.539062-20.085937 0l-9.519532 9.519532-6.199218-6.203125c22.585937-24.9375 36.933593-57.46875 38.703124-93.257813h8.695313v13.460938c0 7.832031 6.371094 14.203125 14.203125 14.203125h8.121094c7.59375 0 13.796875-5.996094 14.167968-13.503907h5.386719c4.144531 0 7.5-3.355468 7.5-7.5 0-4.140624-3.355469-7.5-7.5-7.5h-5.351562v-13.320312h39.609375c3.359375 0 6.097656 2.734375 6.097656 6.09375v1.132812c0 3.171876-2.585938 5.894532-5.765625 6.066407-4.136719.226562-7.304687 3.765625-7.078125 7.902343.226562 4.132813 3.777344 7.304688 7.898438 7.078126 11.183593-.613282 19.941406-9.859376 19.941406-21.046876v-1.132812c.003906-11.636719-9.457032-21.101562-21.089844-21.101562zm-73.515625-149.148438c2.378906-2.375 6.246094-2.375 8.621094 0l.800781.800781c2.363281 2.359375 2.363281 6.261719 0 8.621094l-28.007812 28.007813-9.421876-9.421876zm-48.164063 29.070312c7.640626 7.636719 27.261719 27.257813 28.519532 28.515626l-4.617188 4.613281-28.515625-28.515625zm-119.886718-93.160156c0-3.363281 2.734375-6.097656 6.09375-6.097656h1.132812c3.363282 0 6.097656 2.734375 6.097656 6.097656v39.609375h-13.324218zm-13.503906 54.609375h40.328124v6.527344h-40.328124zm-150.652344 10.285157.808594-.804688c2.375-2.375 6.242187-2.378906 8.617187 0l28.007813 28.007812-9.421876 9.421876-28.007812-28.007813c-2.375-2.375-2.375-6.246094-.003906-8.617187zm33.6875 61.394531-4.613282-4.613281c.234376-.238282-2.996093 2.992187 28.515626-28.515626l4.613281 4.613282c-33.960938 33.960937 14.734375-14.734375-28.515625 28.515625zm-103.871094 109.179687v-1.132812c0-3.359375 2.734375-6.09375 6.097656-6.09375h39.609375v13.320312h-39.609375c-3.363281 0-6.097656-2.734375-6.097656-6.09375zm67.234375 19.597656h-6.523437c0-15.425781 0-27.414062 0-40.328124h6.523437zm12.375 150.648438c-2.375 2.375-6.242187 2.378906-8.621094-.003906l-.800781-.796875c-2.375-2.378907-2.375-6.246094 0-8.621094l28.007812-28.007813 9.421876 9.421876zm48.164063-29.070312-4.234376-4.230469c-.003906-.003907-.003906-.007813-.007812-.011719l-20.027344-20.027344c-.003906-.003906-.007812-.007812-.011718-.011718l-4.234376-4.234376 4.613282-4.613281 14.25 14.25s.007812.007813.007812.007813.007813.007812.011719.011718l14.25 14.246094zm133.390624 38.550781c-15.421874 0-27.414062 0-40.328124 0v-6.527344h40.328124zm150.648438-10.28125-.800781.800781c-2.375 2.375-6.246094 2.375-8.621094 0l-28.007813-28.007812 9.421876-9.421876 28.007812 28.007813c2.363281 2.359375 2.363281 6.261719 0 8.621094zm-33.683594-61.398438 4.613282 4.613281c-.855469.859376 4.46875-4.464843-28.515626 28.515626l-4.613281-4.613282zm-137.128906 26.640625c-74.578125 0-135.253906-60.675781-135.253906-135.253906s60.675781-135.253906 135.253906-135.253906c74.582031 0 135.257812 60.675781 135.257812 135.253906s-60.675781 135.253906-135.257812 135.253906zm180.292969-115.089844h-6.523438v-40.328124h6.523438zm0 0"/></svg>