<svg id="Calque_1" data-name="Calque 1" xmlns="http://www.w3.org/2000/svg" viewBox="0 0 350 55"><defs><style>.cls-1,.cls-3{fill:#ff7043;}.cls-2{fill:#a7ffeb;}.cls-3{font-size:119px;font-family:Righteous-Regular, Righteous;}</style></defs><title>logo</title><path class="cls-1" d="M26.69,50.13H17.84V15.51H4.51V6.85H40v8.66H26.69Z"/><path class="cls-1" d="M75.08,50.13H44.68V6.85h30.4v8.66H53.56v8.66H68.13v8.66H53.56v8.63H75.08Z"/><path class="cls-1" d="M125.3,50.13h-8.84V19.22a4,4,0,0,0-.36-1.69,4.51,4.51,0,0,0-1-1.37,4.4,4.4,0,0,0-1.41-.92,4.68,4.68,0,0,0-3.46,0,4.39,4.39,0,0,0-1.41.92,4.27,4.27,0,0,0-.94,1.37,4.19,4.19,0,0,0-.34,1.69v30.9H98.71V19.22a4.19,4.19,0,0,0-.34-1.69,4.29,4.29,0,0,0-.94-1.37A4.4,4.4,0,0,0,96,15.24a4.68,4.68,0,0,0-3.46,0,4.4,4.4,0,0,0-1.41.92,4.29,4.29,0,0,0-.94,1.37,4.19,4.19,0,0,0-.34,1.69v30.9H81V19.22a12.48,12.48,0,0,1,1-5.06A13,13,0,0,1,84.87,10,13.61,13.61,0,0,1,99,7.1a13,13,0,0,1,4.11,2.49,13,13,0,0,1,4.1-2.49A13.51,13.51,0,0,1,121.42,10a13,13,0,0,1,2.84,4.13,12.48,12.48,0,0,1,1,5.06Z"/><path class="cls-1" d="M142.09,50.13h-8.87V6.85H151a17.8,17.8,0,0,1,8.92,2.37,18,18,0,0,1,3.59,2.72,17.31,17.31,0,0,1,4.58,7.65,16.9,16.9,0,0,1-.76,11.3,17.48,17.48,0,0,1-3.8,5.51,18,18,0,0,1-5.64,3.71A17.58,17.58,0,0,1,151,41.46h-8.88Zm0-34.62V32.83H151a8.74,8.74,0,0,0,3.43-.68,9,9,0,0,0,2.81-1.86,8.73,8.73,0,0,0,1.9-2.76,8.48,8.48,0,0,0,0-6.73,8.73,8.73,0,0,0-1.9-2.76,9,9,0,0,0-2.81-1.86,8.74,8.74,0,0,0-3.43-.68Z"/><path class="cls-2" d="M204.93,50.13h-31V6.85h8.88V41.46h22.17Z"/><path class="cls-2" d="M244.51,50.13h-8.87V41.46H217.89v8.66H209v-26a16.52,16.52,0,0,1,1.39-6.75,18,18,0,0,1,23.24-9.22,18,18,0,0,1,5.64,3.71,17.47,17.47,0,0,1,3.8,5.51,16.52,16.52,0,0,1,1.39,6.75Zm-8.87-17.29V24.17a8.28,8.28,0,0,0-.7-3.36A8.72,8.72,0,0,0,233,18a9,9,0,0,0-2.83-1.86,9.1,9.1,0,0,0-6.9,0A9,9,0,0,0,220.49,18a8.72,8.72,0,0,0-1.9,2.76,8.28,8.28,0,0,0-.7,3.36v8.66Z"/><path class="cls-2" d="M269.5,50.13h-8.84V15.51H247.33V6.85H282.8v8.66H269.5Z"/><path class="cls-2" d="M317.9,50.13H287.5V6.85h30.4v8.66H296.37v8.66h14.56v8.66H296.37v8.63H317.9Z"/><text class="cls-3" transform="translate(319.67 45.92)">.</text></svg>