<svg id="Calque_1" data-name="Calque 1" xmlns="http://www.w3.org/2000/svg" viewBox="0 0 600 128"><defs><style>.cls-1{fill:#00a99d;}.cls-2{fill:#b3b3b3;}</style></defs><title>logo</title><path class="cls-1" d="M282.69,86.13h-8.84V51.51H260.51V42.85H296v8.66h-13.3Z"/><path class="cls-1" d="M331.08,86.13h-30.4V42.85h30.4v8.66H309.56v8.66h14.57v8.66H309.56v8.63h21.52Z"/><path class="cls-1" d="M381.3,86.13h-8.84V55.22a4,4,0,0,0-.36-1.69,4.51,4.51,0,0,0-1-1.37,4.4,4.4,0,0,0-1.41-.92,4.68,4.68,0,0,0-3.46,0,4.39,4.39,0,0,0-1.41.92,4.27,4.27,0,0,0-.94,1.37,4.19,4.19,0,0,0-.34,1.69v30.9h-8.87V55.22a4.19,4.19,0,0,0-.34-1.69,4.29,4.29,0,0,0-.94-1.37,4.4,4.4,0,0,0-1.41-.92,4.68,4.68,0,0,0-3.46,0,4.4,4.4,0,0,0-1.41.92,4.29,4.29,0,0,0-.94,1.37,4.19,4.19,0,0,0-.34,1.69v30.9H337V55.22a12.48,12.48,0,0,1,1-5.06A13,13,0,0,1,340.87,46,13.61,13.61,0,0,1,355,43.1a13,13,0,0,1,4.11,2.49,13,13,0,0,1,4.1-2.49A13.51,13.51,0,0,1,377.42,46a13,13,0,0,1,2.84,4.13,12.48,12.48,0,0,1,1,5.06Z"/><path class="cls-1" d="M398.09,86.13h-8.87V42.85H407a17.8,17.8,0,0,1,8.92,2.37,18,18,0,0,1,3.59,2.72,17.31,17.31,0,0,1,4.58,7.65,16.9,16.9,0,0,1-.76,11.3,17.48,17.48,0,0,1-3.8,5.51,18,18,0,0,1-5.64,3.71A17.58,17.58,0,0,1,407,77.46h-8.88Zm0-34.62V68.83H407a8.74,8.74,0,0,0,3.43-.68,9,9,0,0,0,2.81-1.86,8.73,8.73,0,0,0,1.9-2.76,8.48,8.48,0,0,0,0-6.73,8.73,8.73,0,0,0-1.9-2.76,9,9,0,0,0-2.81-1.86,8.74,8.74,0,0,0-3.43-.68Z"/><path class="cls-1" d="M460.93,86.13h-31V42.85h8.88V77.46h22.17Z"/><path class="cls-1" d="M500.51,86.13h-8.87V77.46H473.89v8.66H465v-26a16.52,16.52,0,0,1,1.39-6.75,18,18,0,0,1,23.24-9.22,18,18,0,0,1,5.64,3.71,17.47,17.47,0,0,1,3.8,5.51,16.52,16.52,0,0,1,1.39,6.75Zm-8.87-17.29V60.17a8.28,8.28,0,0,0-.7-3.36A8.72,8.72,0,0,0,489,54a9,9,0,0,0-2.83-1.86,9.1,9.1,0,0,0-6.9,0A9,9,0,0,0,476.49,54a8.72,8.72,0,0,0-1.9,2.76,8.28,8.28,0,0,0-.7,3.36v8.66Z"/><path class="cls-1" d="M525.5,86.13h-8.84V51.51H503.33V42.85H538.8v8.66H525.5Z"/><path class="cls-1" d="M573.9,86.13H543.5V42.85h30.4v8.66H552.37v8.66h14.56v8.66H552.37v8.63H573.9Z"/><path class="cls-2" d="M60.62,65.46l35.26,32-17.2,19.19L25.36,66.5,77.47,12.31,96.05,29.86Z"/><path class="cls-2" d="M135,120,111,114,137.22,9.54l24.06,6Z"/><path class="cls-2" d="M175.65,29.86l18.58-17.54L246.35,66.5,193,116.63l-17.2-19.19,35.26-32Z"/></svg>